<svg width="256" height="256" viewBox="0 0 256 256" fill="none" xmlns="http://www.w3.org/2000/svg">
  <circle cx="128" cy="128" r="120" fill="#FDE047"/>
  <path d="M125 46C133 34 146 30 161 32C151 39 141 49 136 61L125 46Z" fill="#15803d"/>
  <path d="M171 63C155 56 132 56 108 64C72 77 49 112 52 146C55 180 83 207 123 214C165 221 201 196 211 158C222 119 205 78 171 63Z" fill="#15803d"/>
  <path d="M97 101C84 114 77 130 79 145C81 167 99 185 127 191C141 194 154 192 166 185C156 191 142 194 128 192C95 187 74 164 72 138C70 121 79 106 97 94C116 81 139 76 161 80C138 78 113 84 97 101Z" fill="#16a34a"/>
</svg>
